<svg width="652" height="442" viewBox="0 0 652 442" fill="none" xmlns="http://www.w3.org/2000/svg">
<g clip-path="url(#clip0)">
<rect width="316" height="210.14" fill="white"/>
<path d="M316 0H0V210.667H316V0Z" fill="white"/>
<path d="M0 59.3378L7.54889 62.0764C15.0978 64.8502 30.1956 70.3276 45.2231 70.152C60.2858 69.9764 75.2431 64.148 90.3058 58.9164C105.333 53.72 120.431 49.1556 135.459 48.5236C150.521 47.8564 165.479 51.1569 180.541 55.4053C195.569 59.6889 210.667 64.9556 225.694 61.0933C240.757 57.2311 255.714 44.24 270.777 44.3453C285.804 44.4858 300.902 57.6876 308.451 64.3236L316 70.9244V0H308.451C300.902 0 285.804 0 270.777 0C255.714 0 240.757 0 225.694 0C210.667 0 195.569 0 180.541 0C165.479 0 150.521 0 135.459 0C120.431 0 105.333 0 90.3058 0C75.2431 0 60.2858 0 45.2231 0C30.1956 0 15.0978 0 7.54889 0H0V59.3378Z" fill="#F6F6F6"/>
<path d="M0 34.76L7.54889 38.3764C15.0978 42.028 30.1956 49.2609 45.2231 47.4702C60.2858 45.6444 75.2431 34.76 90.3058 34.6547C105.333 34.5142 120.431 45.188 135.459 47.1542C150.521 49.1556 165.479 42.4844 180.541 37.3231C195.569 32.1969 210.667 28.5453 225.694 32.3022C240.757 36.0591 255.714 47.1542 270.777 47.9267C285.804 48.6991 300.902 39.0787 308.451 34.3036L316 29.4933V0H308.451C300.902 0 285.804 0 270.777 0C255.714 0 240.757 0 225.694 0C210.667 0 195.569 0 180.541 0C165.479 0 150.521 0 135.459 0C120.431 0 105.333 0 90.3058 0C75.2431 0 60.2858 0 45.2231 0C30.1956 0 15.0978 0 7.54889 0H0V34.76Z" fill="#F2F2F2"/>
<rect x="98.918" y="84.0547" width="118.163" height="17.696" rx="4" fill="#8B7AF4"/>
<rect x="118.336" y="108.387" width="79.3301" height="17.696" rx="4" fill="#8B7AF4"/>
<ellipse cx="131.929" cy="154.839" rx="12.64" ry="12.64" fill="#8B7AF4"/>
<rect x="150.891" y="149.309" width="46.61" height="11.06" rx="4" fill="#DBDBDB"/>
<g clip-path="url(#clip1)">
<path d="M284.402 183.281H31.6016V372.881H284.402V183.281Z" fill="#FF0066"/>
<g filter="url(#filter0_f)">
<path d="M52.6667 360.24C110.259 360.24 156.947 313.552 156.947 255.96C156.947 198.367 110.259 151.68 52.6667 151.68C-4.92554 151.68 -51.6133 198.367 -51.6133 255.96C-51.6133 313.552 -4.92554 360.24 52.6667 360.24Z" fill="#6600FF"/>
<path d="M70.573 288.615C128.165 288.615 174.853 241.927 174.853 184.335C174.853 126.742 128.165 80.0547 70.573 80.0547C12.9807 80.0547 -33.707 126.742 -33.707 184.335C-33.707 241.927 12.9807 288.615 70.573 288.615Z" fill="#6600FF"/>
<path d="M143.253 318.107C200.845 318.107 247.533 271.419 247.533 213.827C247.533 156.235 200.845 109.547 143.253 109.547C85.6604 109.547 38.9727 156.235 38.9727 213.827C38.9727 271.419 85.6604 318.107 143.253 318.107Z" fill="#6600FF"/>
<path d="M198.026 398.162C255.618 398.162 302.306 351.474 302.306 293.882C302.306 236.289 255.618 189.602 198.026 189.602C140.434 189.602 93.7461 236.289 93.7461 293.882C93.7461 351.474 140.434 398.162 198.026 398.162Z" fill="#6600FF"/>
</g>
</g>
</g>
<rect width="316" height="210.14" transform="translate(0 231)" fill="white"/>
<rect x="110.602" y="262.602" width="189.6" height="142.2" fill="#C4C4C4"/>
<g clip-path="url(#clip2)">
<path d="M300.202 262.602H110.602V404.802H300.202V262.602Z" fill="#C62368"/>
<path d="M120.081 389.791C128.807 389.791 135.881 382.718 135.881 373.991C135.881 365.265 128.807 358.191 120.081 358.191C111.355 358.191 104.281 365.265 104.281 373.991C104.281 382.718 111.355 389.791 120.081 389.791Z" stroke="#FB675C" stroke-width="6"/>
<path d="M136.672 313.163C140.162 313.163 142.992 310.334 142.992 306.843C142.992 303.353 140.162 300.523 136.672 300.523C133.181 300.523 130.352 303.353 130.352 306.843C130.352 310.334 133.181 313.163 136.672 313.163Z" stroke="#FB675C" stroke-width="6"/>
<path d="M260.7 389.005C268.117 389.005 274.13 382.992 274.13 375.575C274.13 368.157 268.117 362.145 260.7 362.145C253.282 362.145 247.27 368.157 247.27 375.575C247.27 382.992 253.282 389.005 260.7 389.005Z" stroke="#FB675C" stroke-width="6"/>
<path d="M164.322 340.811C170.43 340.811 175.382 335.86 175.382 329.751C175.382 323.643 170.43 318.691 164.322 318.691C158.213 318.691 153.262 323.643 153.262 329.751C153.262 335.86 158.213 340.811 164.322 340.811Z" stroke="#FB675C" stroke-width="6"/>
<path d="M269.392 303.682C275.5 303.682 280.452 298.731 280.452 292.622C280.452 286.514 275.5 281.562 269.392 281.562C263.284 281.562 258.332 286.514 258.332 292.622C258.332 298.731 263.284 303.682 269.392 303.682Z" stroke="#FB675C" stroke-width="6"/>
<path d="M191.971 376.364C196.771 376.364 200.661 372.474 200.661 367.674C200.661 362.875 196.771 358.984 191.971 358.984C187.172 358.984 183.281 362.875 183.281 367.674C183.281 372.474 187.172 376.364 191.971 376.364Z" stroke="#FB675C" stroke-width="6"/>
<path d="M188.81 288.675C194.918 288.675 199.87 283.723 199.87 277.615C199.87 271.506 194.918 266.555 188.81 266.555C182.702 266.555 177.75 271.506 177.75 277.615C177.75 283.723 182.702 288.675 188.81 288.675Z" stroke="#FB675C" stroke-width="6"/>
<path d="M111.391 276.822C115.318 276.822 118.501 273.638 118.501 269.712C118.501 265.785 115.318 262.602 111.391 262.602C107.465 262.602 104.281 265.785 104.281 269.712C104.281 273.638 107.465 276.822 111.391 276.822Z" stroke="#FB675C" stroke-width="6"/>
<path d="M280.452 342.392C285.251 342.392 289.142 338.501 289.142 333.702C289.142 328.902 285.251 325.012 280.452 325.012C275.652 325.012 271.762 328.902 271.762 333.702C271.762 338.501 275.652 342.392 280.452 342.392Z" stroke="#FB675C" stroke-width="6"/>
<path d="M219.621 403.223C227.039 403.223 233.051 397.21 233.051 389.793C233.051 382.376 227.039 376.363 219.621 376.363C212.204 376.363 206.191 382.376 206.191 389.793C206.191 397.21 212.204 403.223 219.621 403.223Z" stroke="#FB675C" stroke-width="6"/>
<path d="M215.672 324.223C223.089 324.223 229.102 318.21 229.102 310.793C229.102 303.376 223.089 297.363 215.672 297.363C208.255 297.363 202.242 303.376 202.242 310.793C202.242 318.21 208.255 324.223 215.672 324.223Z" stroke="#FB675C" stroke-width="6"/>
<path d="M295.461 407.173C301.133 407.173 305.731 402.575 305.731 396.903C305.731 391.231 301.133 386.633 295.461 386.633C289.789 386.633 285.191 391.231 285.191 396.903C285.191 402.575 289.789 407.173 295.461 407.173Z" stroke="#FB675C" stroke-width="6"/>
<path d="M229.1 275.243C233.9 275.243 237.79 271.353 237.79 266.553C237.79 261.754 233.9 257.863 229.1 257.863C224.301 257.863 220.41 261.754 220.41 266.553C220.41 271.353 224.301 275.243 229.1 275.243Z" stroke="#FB675C" stroke-width="6"/>
<path d="M177.75 415.864C185.167 415.864 191.18 409.851 191.18 402.434C191.18 395.017 185.167 389.004 177.75 389.004C170.333 389.004 164.32 395.017 164.32 402.434C164.32 409.851 170.333 415.864 177.75 415.864Z" stroke="#FB675C" stroke-width="6"/>
</g>
<rect x="15.8008" y="330.539" width="142.2" height="74.26" fill="white"/>
<rect x="31.6016" y="346.34" width="110.26" height="17.696" rx="4" fill="#8B7AF4"/>
<rect x="31.6016" y="370.672" width="71.4318" height="17.696" rx="4" fill="#8B7AF4"/>
<g clip-path="url(#clip3)">
<rect width="316" height="441" transform="translate(336)" fill="white"/>
<rect x="434.75" y="67.1094" width="118.163" height="17.8957" rx="4" fill="#8B7AF4"/>
<rect x="422.898" y="312.375" width="142.2" height="9.58694" rx="2" fill="#DBDBDB"/>
<rect x="422.898" y="328.352" width="128.77" height="9.58694" rx="2" fill="#DBDBDB"/>
<rect x="422.898" y="344.332" width="128.77" height="9.58698" rx="2" fill="#DBDBDB"/>
<rect x="422.898" y="360.309" width="115.34" height="9.58694" rx="2" fill="#DBDBDB"/>
<rect x="422.898" y="389.07" width="132.72" height="9.58698" rx="2" fill="#DBDBDB"/>
<rect x="422.898" y="405.051" width="105.07" height="9.58694" rx="2" fill="#DBDBDB"/>
<rect x="422.898" y="421.027" width="115.34" height="9.58694" rx="2" fill="#DBDBDB"/>
<rect x="422.898" y="437.004" width="59.25" height="9.58701" rx="2" fill="#DBDBDB"/>
<rect x="454.168" y="91.7148" width="79.33" height="17.8956" rx="4" fill="#8B7AF4"/>
<ellipse cx="474.25" cy="41.544" rx="9.48" ry="9.58696" fill="#8B7AF4"/>
<rect x="486.891" y="35.9531" width="46.61" height="11.1848" rx="4" fill="#DBDBDB"/>
<rect x="367.602" y="125.43" width="252.8" height="170.435" fill="#C4C4C4"/>
<g clip-path="url(#clip4)">
<path d="M478.554 212.352L447.938 219.453L459.735 231.668L478.554 212.352Z" fill="#297EA6" stroke="#297EA6" stroke-linejoin="bevel"/>
<path d="M459.734 231.668L480.801 243.314L478.554 212.352L459.734 231.668Z" fill="#205A7A" stroke="#205A7A" stroke-linejoin="bevel"/>
<path d="M508.606 199.284L484.449 180.82L478.551 212.351L508.606 199.284Z" fill="#246688" stroke="#246688" stroke-linejoin="bevel"/>
<path d="M478.553 212.353L440.914 174.289L447.936 219.454L478.553 212.353Z" fill="#00101C" stroke="#00101C" stroke-linejoin="bevel"/>
<path d="M480.798 243.314L506.078 231.099L478.551 212.352L480.798 243.314Z" fill="#297EA6" stroke="#297EA6" stroke-linejoin="bevel"/>
<path d="M421.534 189.344L417.602 212.637L447.938 219.454L421.534 189.344Z" fill="#1D4E6B" stroke="#1D4E6B" stroke-linejoin="bevel"/>
<path d="M447.936 219.453L419.566 239.905L459.734 231.668L447.936 219.453Z" fill="#15384F" stroke="#15384F" stroke-linejoin="bevel"/>
<path d="M459.734 231.668L476.588 270.584L480.801 243.314L459.734 231.668Z" fill="#297EA6" stroke="#297EA6" stroke-linejoin="bevel"/>
<path d="M484.452 180.822L440.914 174.289L478.553 212.353L484.452 180.822Z" fill="#15384F" stroke="#15384F" stroke-linejoin="bevel"/>
<path d="M506.078 231.1L508.606 199.285L478.551 212.352L506.078 231.1Z" fill="#205A7A" stroke="#205A7A" stroke-linejoin="bevel"/>
<path d="M440.913 174.289L421.531 189.344L447.935 219.454L440.913 174.289Z" fill="#19435D" stroke="#19435D" stroke-linejoin="bevel"/>
<path d="M417.602 212.637L419.568 239.906L447.938 219.454L417.602 212.637Z" fill="#1D4E6B" stroke="#1D4E6B" stroke-linejoin="bevel"/>
<path d="M442.035 268.595L476.584 270.584L459.731 231.668L442.035 268.595Z" fill="#19435D" stroke="#19435D" stroke-linejoin="bevel"/>
<path d="M480.801 243.312L501.025 268.309L506.081 231.098L480.801 243.312Z" fill="#112E42" stroke="#112E42" stroke-linejoin="bevel"/>
<path d="M419.566 239.906L442.038 268.596L459.734 231.668L419.566 239.906Z" fill="#297EA6" stroke="#297EA6" stroke-linejoin="bevel"/>
<path d="M476.586 270.582L501.023 268.31L480.799 243.312L476.586 270.582Z" fill="#00101C" stroke="#00101C" stroke-linejoin="bevel"/>
<path d="M505.799 158.664L483.328 154.688L484.452 180.821L505.799 158.664Z" fill="#081A28" stroke="#081A28" stroke-linejoin="bevel"/>
<path d="M484.452 180.821L483.328 154.688L440.914 174.287L484.452 180.821Z" fill="#205A7A" stroke="#205A7A" stroke-linejoin="bevel"/>
<path d="M421.53 189.344L399.34 204.115L417.598 212.637L421.53 189.344Z" fill="#277297" stroke="#277297" stroke-linejoin="bevel"/>
<path d="M417.599 212.637L394.566 229.964L419.566 239.906L417.599 212.637Z" fill="#15384F" stroke="#15384F" stroke-linejoin="bevel"/>
<path d="M389.23 177.695L399.342 204.113L421.533 189.342L389.23 177.695Z" fill="#277297" stroke="#277297" stroke-linejoin="bevel"/>
<path d="M535.575 189.627L513.665 172.016L508.609 199.285L535.575 189.627Z" fill="#19435D" stroke="#19435D" stroke-linejoin="bevel"/>
<path d="M508.61 199.285L513.666 172.016L484.453 180.821L508.61 199.285Z" fill="#205A7A" stroke="#205A7A" stroke-linejoin="bevel"/>
<path d="M399.342 204.113L394.566 229.963L417.599 212.635L399.342 204.113Z" fill="#15384F" stroke="#15384F" stroke-linejoin="bevel"/>
<path d="M419.566 239.906L429.398 278.254L442.038 268.596L419.566 239.906Z" fill="#112E42" stroke="#112E42" stroke-linejoin="bevel"/>
<path d="M397.656 276.834L429.397 278.254L419.566 239.906L397.656 276.834Z" fill="#246688" stroke="#246688" stroke-linejoin="bevel"/>
<path d="M442.035 268.594L456.922 295.863L476.584 270.582L442.035 268.594Z" fill="#00101C" stroke="#00101C" stroke-linejoin="bevel"/>
<path d="M476.586 270.585L477.148 295.866L501.023 268.312L476.586 270.585Z" fill="#205A7A" stroke="#205A7A" stroke-linejoin="bevel"/>
<path d="M513.666 172.015L505.801 158.664L484.453 180.821L513.666 172.015Z" fill="#112E42" stroke="#112E42" stroke-linejoin="bevel"/>
<path d="M543.998 242.744L534.729 212.918L506.078 231.098L543.998 242.744Z" fill="#277297" stroke="#277297" stroke-linejoin="bevel"/>
<path d="M506.078 231.1L534.729 212.92L508.606 199.285L506.078 231.1Z" fill="#112E42" stroke="#112E42" stroke-linejoin="bevel"/>
<path d="M483.328 154.687L445.408 142.473L440.914 174.287L483.328 154.687Z" fill="#00101C" stroke="#00101C" stroke-linejoin="bevel"/>
<path d="M420.971 143.324L389.23 177.695L421.533 189.342L420.971 143.324Z" fill="#00101C" stroke="#00101C" stroke-linejoin="bevel"/>
<path d="M456.08 125.43L445.406 142.473L483.326 154.688L456.08 125.43Z" fill="#112E42" stroke="#112E42" stroke-linejoin="bevel"/>
<path d="M513.662 172.015L530.796 164.061L505.797 158.664L513.662 172.015Z" fill="#081A28" stroke="#081A28" stroke-linejoin="bevel"/>
<path d="M534.732 212.918L535.575 189.625L508.609 199.283L534.732 212.918Z" fill="#081A28" stroke="#081A28" stroke-linejoin="bevel"/>
<path d="M429.398 278.252L456.926 295.863L442.038 268.594L429.398 278.252Z" fill="#0C2435" stroke="#0C2435" stroke-linejoin="bevel"/>
<path d="M456.926 295.863H477.15L476.588 270.582L456.926 295.863Z" fill="#19435D" stroke="#19435D" stroke-linejoin="bevel"/>
<path d="M420.969 143.324L421.531 189.342L440.912 174.287L420.969 143.324Z" fill="#15384F" stroke="#15384F" stroke-linejoin="bevel"/>
<path d="M399.342 204.112L367.602 201.84L394.567 229.962L399.342 204.112Z" fill="#19435D" stroke="#19435D" stroke-linejoin="bevel"/>
<path d="M445.406 142.473L420.969 143.325L440.912 174.287L445.406 142.473Z" fill="#297EA6" stroke="#297EA6" stroke-linejoin="bevel"/>
<path d="M528.831 272.854L506.079 231.098L501.023 268.309L528.831 272.854Z" fill="#15384F" stroke="#15384F" stroke-linejoin="bevel"/>
<path d="M528.83 272.854L543.998 242.744L506.078 231.098L528.83 272.854Z" fill="#00101C" stroke="#00101C" stroke-linejoin="bevel"/>
<path d="M534.73 212.918L554.954 205.816L535.573 189.625L534.73 212.918Z" fill="#0C2435" stroke="#0C2435" stroke-linejoin="bevel"/>
<path d="M535.573 189.628L530.798 164.062L513.664 172.016L535.573 189.628Z" fill="#19435D" stroke="#19435D" stroke-linejoin="bevel"/>
<path d="M478.272 125.43H456.082L483.328 154.688L478.272 125.43Z" fill="#19435D" stroke="#19435D" stroke-linejoin="bevel"/>
<path d="M517.315 295.866L528.831 272.857L501.023 268.312L517.315 295.866Z" fill="#081A28" stroke="#081A28" stroke-linejoin="bevel"/>
<path d="M394.566 229.965L397.656 276.834L419.566 239.907L394.566 229.965Z" fill="#19435D" stroke="#19435D" stroke-linejoin="bevel"/>
<path d="M429.398 278.254L420.129 295.865H456.925L429.398 278.254Z" fill="#297EA6" stroke="#297EA6" stroke-linejoin="bevel"/>
<path d="M367.602 249.281L397.657 276.834L394.567 229.965L367.602 249.281Z" fill="#0C2435" stroke="#0C2435" stroke-linejoin="bevel"/>
<path d="M397.656 276.832L420.127 295.864L429.397 278.252L397.656 276.832Z" fill="#277297" stroke="#277297" stroke-linejoin="bevel"/>
<path d="M478.273 125.43L483.329 154.688L512.823 125.43H478.273Z" fill="#297EA6" stroke="#297EA6" stroke-linejoin="bevel"/>
<path d="M445.406 142.473L431.923 125.43L420.969 143.325L445.406 142.473Z" fill="#00101C" stroke="#00101C" stroke-linejoin="bevel"/>
<path d="M512.821 125.43L483.328 154.688L505.799 158.664L512.821 125.43Z" fill="#246688" stroke="#246688" stroke-linejoin="bevel"/>
<path d="M544 242.744L554.954 205.816L534.73 212.918L544 242.744Z" fill="#205A7A" stroke="#205A7A" stroke-linejoin="bevel"/>
<path d="M574.896 174.573L556.358 143.043L530.797 164.063L574.896 174.573Z" fill="#277297" stroke="#277297" stroke-linejoin="bevel"/>
<path d="M456.082 125.43H431.926L445.408 142.473L456.082 125.43Z" fill="#112E42" stroke="#112E42" stroke-linejoin="bevel"/>
<path d="M420.97 143.324L385.859 150.71L389.23 177.695L420.97 143.324Z" fill="#112E42" stroke="#112E42" stroke-linejoin="bevel"/>
<path d="M528.832 272.856L553.831 268.027L544 242.746L528.832 272.856Z" fill="#246688" stroke="#246688" stroke-linejoin="bevel"/>
<path d="M477.148 295.866H517.316L501.024 268.312L477.148 295.866Z" fill="#205A7A" stroke="#205A7A" stroke-linejoin="bevel"/>
<path d="M367.602 171.445V201.84L389.23 177.695L367.602 171.445Z" fill="#081A28" stroke="#081A28" stroke-linejoin="bevel"/>
<path d="M389.23 177.695L367.602 201.84L399.342 204.113L389.23 177.695Z" fill="#246688" stroke="#246688" stroke-linejoin="bevel"/>
<path d="M367.602 295.864H401.027L397.657 276.832L367.602 295.864Z" fill="#297EA6" stroke="#297EA6" stroke-linejoin="bevel"/>
<path d="M397.656 276.832L401.027 295.864H420.127L397.656 276.832Z" fill="#205A7A" stroke="#205A7A" stroke-linejoin="bevel"/>
<path d="M395.129 125.43L385.859 150.711L420.97 143.325L395.129 125.43Z" fill="#297EA6" stroke="#297EA6" stroke-linejoin="bevel"/>
<path d="M367.602 201.84V249.278L394.567 229.962L367.602 201.84Z" fill="#00101C" stroke="#00101C" stroke-linejoin="bevel"/>
<path d="M543.437 125.43H512.82L530.797 164.062L543.437 125.43Z" fill="#1D4E6B" stroke="#1D4E6B" stroke-linejoin="bevel"/>
<path d="M530.796 164.062L512.819 125.43L505.797 158.664L530.796 164.062Z" fill="#15384F" stroke="#15384F" stroke-linejoin="bevel"/>
<path d="M535.573 295.865L553.831 268.027L528.832 272.856L535.573 295.865Z" fill="#112E42" stroke="#112E42" stroke-linejoin="bevel"/>
<path d="M544 242.744L571.527 238.767L554.955 205.816L544 242.744Z" fill="#15384F" stroke="#15384F" stroke-linejoin="bevel"/>
<path d="M385.859 150.711L367.602 171.447L389.23 177.696L385.859 150.711Z" fill="#081A28" stroke="#081A28" stroke-linejoin="bevel"/>
<path d="M517.316 295.864H535.574L528.833 272.855L517.316 295.864Z" fill="#15384F" stroke="#15384F" stroke-linejoin="bevel"/>
<path d="M553.831 268.027L571.527 238.77L544 242.746L553.831 268.027Z" fill="#19435D" stroke="#19435D" stroke-linejoin="bevel"/>
<path d="M431.925 125.43H395.129L420.971 143.325L431.925 125.43Z" fill="#205A7A" stroke="#205A7A" stroke-linejoin="bevel"/>
<path d="M385.859 150.711L367.602 155.256V171.447L385.859 150.711Z" fill="#081A28" stroke="#081A28" stroke-linejoin="bevel"/>
<path d="M367.602 125.43V155.256L385.859 150.711L367.602 125.43Z" fill="#0C2435" stroke="#0C2435" stroke-linejoin="bevel"/>
<path d="M367.602 249.277V277.967L397.657 276.831L367.602 249.277Z" fill="#112E42" stroke="#112E42" stroke-linejoin="bevel"/>
<path d="M574.896 174.573L530.797 164.062L535.572 189.628L574.896 174.573Z" fill="#297EA6" stroke="#297EA6" stroke-linejoin="bevel"/>
<path d="M574.899 174.57L535.574 189.625L554.956 205.817L574.899 174.57Z" fill="#277297" stroke="#277297" stroke-linejoin="bevel"/>
<path d="M593.716 191.046L574.896 174.57L554.953 205.817L593.716 191.046Z" fill="#112E42" stroke="#112E42" stroke-linejoin="bevel"/>
<path d="M556.358 143.041L543.437 125.43L530.797 164.062L556.358 143.041Z" fill="#297EA6" stroke="#297EA6" stroke-linejoin="bevel"/>
<path d="M367.602 277.968V295.864L397.657 276.832L367.602 277.968Z" fill="#1D4E6B" stroke="#1D4E6B" stroke-linejoin="bevel"/>
<path d="M582.201 263.765L588.662 233.371L571.527 238.768L582.201 263.765Z" fill="#112E42" stroke="#112E42" stroke-linejoin="bevel"/>
<path d="M571.526 238.767L588.66 233.37L554.953 205.816L571.526 238.767Z" fill="#19435D" stroke="#19435D" stroke-linejoin="bevel"/>
<path d="M582.202 263.767L571.528 238.77L553.832 268.027L582.202 263.767Z" fill="#112E42" stroke="#112E42" stroke-linejoin="bevel"/>
<path d="M574.056 295.864L582.202 263.766L553.832 268.026L574.056 295.864Z" fill="#112E42" stroke="#112E42" stroke-linejoin="bevel"/>
<path d="M586.413 125.43H554.953L556.358 143.041L586.413 125.43Z" fill="#246688" stroke="#246688" stroke-linejoin="bevel"/>
<path d="M556.358 143.041L554.954 125.43H543.438L556.358 143.041Z" fill="#19435D" stroke="#19435D" stroke-linejoin="bevel"/>
<path d="M395.129 125.43H367.602L385.859 150.711L395.129 125.43Z" fill="#1D4E6B" stroke="#1D4E6B" stroke-linejoin="bevel"/>
<path d="M601.581 215.192L593.716 191.047L554.953 205.818L601.581 215.192Z" fill="#297EA6" stroke="#297EA6" stroke-linejoin="bevel"/>
<path d="M574.898 174.573L592.313 148.724L556.359 143.043L574.898 174.573Z" fill="#19435D" stroke="#19435D" stroke-linejoin="bevel"/>
<path d="M535.574 295.865H574.056L553.832 268.027L535.574 295.865Z" fill="#112E42" stroke="#112E42" stroke-linejoin="bevel"/>
<path d="M620.402 220.02L601.582 215.191L620.402 229.962V220.02Z" fill="#277297" stroke="#277297" stroke-linejoin="bevel"/>
<path d="M588.66 233.37L601.581 215.19L554.953 205.816L588.66 233.37Z" fill="#205A7A" stroke="#205A7A" stroke-linejoin="bevel"/>
<path d="M601.581 215.191L588.66 233.371L620.401 229.962L601.581 215.191Z" fill="#19435D" stroke="#19435D" stroke-linejoin="bevel"/>
<path d="M620.401 183.094L592.312 148.723L593.717 191.047L620.401 183.094Z" fill="#297EA6" stroke="#297EA6" stroke-linejoin="bevel"/>
<path d="M593.718 191.047L592.314 148.723L574.898 174.572L593.718 191.047Z" fill="#00101C" stroke="#00101C" stroke-linejoin="bevel"/>
<path d="M592.313 148.722L586.415 125.43L556.359 143.041L592.313 148.722Z" fill="#1D4E6B" stroke="#1D4E6B" stroke-linejoin="bevel"/>
<path d="M574.055 295.864H599.054L582.2 263.766L574.055 295.864Z" fill="#00101C" stroke="#00101C" stroke-linejoin="bevel"/>
<path d="M620.401 229.965L588.66 233.374L620.401 263.2V229.965Z" fill="#19435D" stroke="#19435D" stroke-linejoin="bevel"/>
<path d="M601.584 215.192L620.403 183.094L593.719 191.047L601.584 215.192Z" fill="#277297" stroke="#277297" stroke-linejoin="bevel"/>
<path d="M592.313 148.722L620.402 125.43H586.414L592.313 148.722Z" fill="#297EA6" stroke="#297EA6" stroke-linejoin="bevel"/>
<path d="M620.4 263.197L588.66 233.371L582.199 263.765L620.4 263.197Z" fill="#297EA6" stroke="#297EA6" stroke-linejoin="bevel"/>
<path d="M620.402 220.021V183.094L601.582 215.192L620.402 220.021Z" fill="#112E42" stroke="#112E42" stroke-linejoin="bevel"/>
<path d="M599.053 295.866L620.4 263.199L582.199 263.767L599.053 295.866Z" fill="#0C2435" stroke="#0C2435" stroke-linejoin="bevel"/>
<path d="M620.401 183.094V155.54L592.312 148.723L620.401 183.094Z" fill="#1D4E6B" stroke="#1D4E6B" stroke-linejoin="bevel"/>
<path d="M599.055 295.866H620.402V263.199L599.055 295.866Z" fill="#112E42" stroke="#112E42" stroke-linejoin="bevel"/>
<path d="M620.401 155.54V125.43L592.312 148.722L620.401 155.54Z" fill="#15384F" stroke="#15384F" stroke-linejoin="bevel"/>
</g>
</g>
<defs>
<filter id="filter0_f" x="-141.613" y="-9.94531" width="533.919" height="547.615" filterUnits="userSpaceOnUse" color-interpolation-filters="sRGB">
<feFlood flood-opacity="0" result="BackgroundImageFix"/>
<feBlend mode="normal" in="SourceGraphic" in2="BackgroundImageFix" result="shape"/>
<feGaussianBlur stdDeviation="45" result="effect1_foregroundBlur"/>
</filter>
<clipPath id="clip0">
<rect width="316" height="210.14" fill="white"/>
</clipPath>
<clipPath id="clip1">
<rect x="31.6016" y="183.281" width="252.8" height="189.6" rx="4" fill="white"/>
</clipPath>
<clipPath id="clip2">
<rect width="189.6" height="142.2" fill="white" transform="translate(110.602 262.602)"/>
</clipPath>
<clipPath id="clip3">
<rect width="316" height="441" fill="white" transform="translate(336)"/>
</clipPath>
<clipPath id="clip4">
<rect width="252.8" height="170.435" fill="white" transform="translate(367.602 125.43)"/>
</clipPath>
</defs>
</svg>
